<?xml version="1.0" encoding="UTF-8" standalone="no"?>
<!-- Created with Inkscape (http://www.inkscape.org/) -->

<svg
   xmlns:dc="http://purl.org/dc/elements/1.1/"
   xmlns:cc="http://creativecommons.org/ns#"
   xmlns:rdf="http://www.w3.org/1999/02/22-rdf-syntax-ns#"
   xmlns:svg="http://www.w3.org/2000/svg"
   xmlns="http://www.w3.org/2000/svg"
   xmlns:sodipodi="http://sodipodi.sourceforge.net/DTD/sodipodi-0.dtd"
   xmlns:inkscape="http://www.inkscape.org/namespaces/inkscape"
   width="347.14285"
   height="347.14282"
   viewBox="0 0 91.848215 91.848207"
   version="1.1"
   id="svg2216"
   inkscape:version="0.92.3 (2405546, 2018-03-11)"
   sodipodi:docname="circle.svg">
  <defs
     id="defs2210" />
  <sodipodi:namedview
     id="base"
     pagecolor="#ffffff"
     bordercolor="#666666"
     borderopacity="1.0"
     inkscape:pageopacity="0.0"
     inkscape:pageshadow="2"
     inkscape:zoom="1.4"
     inkscape:cx="207.007"
     inkscape:cy="169.20533"
     inkscape:document-units="px"
     inkscape:current-layer="layer1"
     showgrid="false"
     units="px"
     inkscape:window-width="1280"
     inkscape:window-height="737"
     inkscape:window-x="-8"
     inkscape:window-y="-8"
     inkscape:window-maximized="1"
     fit-margin-top="10"
     fit-margin-left="10"
     fit-margin-bottom="10"
     fit-margin-right="10"
     inkscape:showpageshadow="false" />
  <metadata
     id="metadata2213">
    <rdf:RDF>
      <cc:Work
         rdf:about="">
        <dc:format>image/svg+xml</dc:format>
        <dc:type
           rdf:resource="http://purl.org/dc/dcmitype/StillImage" />
        <dc:title></dc:title>
      </cc:Work>
    </rdf:RDF>
  </metadata>
  <g
     inkscape:label="Layer 1"
     inkscape:groupmode="layer"
     id="layer1"
     transform="translate(-1.8319654,-120.24363)">
    

<path
       style="fill:#dfd7d7;fill-opacity:1;fill-rule:evenodd;stroke:none;stroke-width:0;stroke-opacity:1"
       d="M 92.425781,22.339844 C 70.2003,34.556574 52.329749,49.827267 38.8125,68.152344 23.215671,89.336614 14.376451,113.38043 12.296875,140.2832 c -0.519895,7.27804 -0.519895,14.36185 0,21.25 2.209551,26.64283 10.983433,50.23119 26.320313,70.76563 14.037144,18.84493 32.493793,33.59483 55.36914,44.25195 1.299736,-27.68257 1.299736,-55.36434 0,-83.04687 -8.318308,-1.4296 -16.571433,-1.4296 -24.759766,0 -1.16976,2.59928 -1.559842,7.27893 -1.169921,14.03711 0.259964,6.75821 -0.06478,11.30714 -0.97461,13.64648 -5.198942,-2.07943 -11.048197,-10.07224 -17.546875,-23.97852 -6.628652,-14.03621 -9.553278,-24.95406 -8.773437,-32.75195 1.81963,-1.03971 5.849162,-1.36449 12.08789,-0.97461 6.498678,0.51986 10.981672,0.32392 13.451172,-0.58594 1.039786,-6.6282 1.301145,-15.13989 0.78125,-25.5371 -1.81963,-1.29963 -6.110514,-1.75512 -12.86914,-1.36524 -6.628652,0.38992 -10.852245,-0.12903 -12.671875,-1.55859 0.129982,-8.70763 3.054597,-19.16999 8.773437,-31.38672 6.238732,-13.386382 12.022646,-20.860353 17.351563,-22.419924 0.259926,1.559571 0.259926,5.783725 0,12.671875 -0.259965,6.23832 -5.44e-4,10.721919 0.779296,13.451169 8.318308,1.42964 17.09219,1.42964 26.320313,0 C 94.505661,101.81329 94.571029,87.453514 94.960938,63.669922 95.09092,45.86474 94.50481,32.087226 93.205078,22.339844 Z"
       transform="matrix(0.26458334,0,0,0.26458334,8.0307756,126.44244)"
       id="path820"
       inkscape:connector-curvature="0"
       sodipodi:nodetypes="ccccccccccccccccccccccccc" />
    


<path
       style="fill:#dfd7d7;fill-opacity:1;fill-rule:evenodd;stroke:none;stroke-width:0;stroke-opacity:1"
       d="m 131.95508,9.8203125 c -2.55124,-0.060912 -10.52812,2.1636975 -23.93164,6.6718755 -1.16976,88.766072 -1.16976,177.467412 0,266.103512 7.79841,3.63904 16.70102,5.65309 26.70898,6.04297 0.38992,-12.86652 0.58399,-33.5318 0.58399,-61.99414 0.12998,-27.94248 0.39132,-48.41171 0.78125,-61.4082 -0.25997,0.13001 5.19922,-0.38883 16.37695,-1.5586 7.92839,4.28887 12.21732,13.5808 12.86719,27.87696 0.25992,4.67871 0.12927,11.50117 -0.39063,20.46875 -0.51989,10.52718 -0.77929,17.8051 -0.77929,21.83398 0,30.41184 0.25942,48.67291 0.77929,54.78125 5.71884,0.90974 14.10264,-0.84487 25.15039,-5.26367 1.29974,-8.96758 1.81854,-21.76876 1.5586,-38.4043 -0.25997,-21.05433 -0.25997,-34.37635 0,-39.96484 0.77984,-15.9857 0.97585,-24.56274 0.58593,-25.73242 -0.77984,-3.89895 -3.90048,-8.96871 -9.35937,-15.20703 -5.06897,-5.97838 -7.86292,-10.78675 -8.38281,-14.42579 1.81962,-3.50906 4.67891,-8.18671 8.57812,-14.03515 4.02918,-6.36829 6.88847,-11.04794 8.57813,-14.03711 -0.12999,-6.36829 -0.12999,-24.043193 0,-53.025391 0.12998,-21.704165 -0.12944,-39.054285 -0.7793,-52.050781 -8.31831,-5.198607 -16.96151,-7.1492331 -25.92969,-5.84961 -0.51989,5.848437 -0.77929,24.109507 -0.77929,54.78125 v 55.365232 c -0.77985,3.639 -4.94005,9.03159 -12.47852,16.17969 -1.16976,-0.38988 -3.96371,-0.38988 -8.38281,0 -3.63926,0.26002 -6.04313,-0.45499 -7.21289,-2.14453 -0.64987,-26.12297 -0.84589,-59.652816 -0.58594,-100.591798 0,-1.429635 0.13069,-3.899141 0.39062,-7.408203 0.25997,-3.379089 0.39063,-5.913972 0.39063,-7.603516 0,-5.588489 -1.30092,-8.707591 -3.90039,-9.3574218 -0.12185,-0.024368 -0.26742,-0.038908 -0.4375,-0.042969 z"
       transform="matrix(0.26458334,0,0,0.26458334,8.0307756,126.44244)"
       id="path820"
       inkscape:connector-curvature="0"
       sodipodi:nodetypes="sccccccccsccccccccccccsccccccscs" />
    


<path
       style="fill:#dfd7d7;fill-opacity:1;fill-rule:evenodd;stroke:none;stroke-width:0;stroke-opacity:1"
       d="m 205.94336,23.314453 c -1.03979,0.389921 -1.49521,1.170157 -1.36524,2.339844 0,15.075924 -0.0653,57.05408 -0.19531,125.935543 -0.12998,51.46613 0.13139,93.11951 0.78125,124.96094 11.04776,-2.85923 20.14442,-8.25182 27.29297,-16.17969 0.25997,-5.58849 0.25997,-21.76821 0,-48.54101 -0.25996,-20.01462 0.26083,-35.61205 1.56055,-46.78906 -0.64987,0 3.83508,-0.0634 13.45312,-0.19336 6.36871,-0.13002 10.52696,0.71364 12.47657,2.5332 0.64987,5.84844 -0.97384,12.80154 -4.87305,20.85937 -4.67905,9.87736 -7.27893,16.1809 -7.79883,18.91016 -0.77984,4.28883 -0.84518,10.46169 -0.19531,18.51953 0.64986,8.96758 0.71521,15.85538 0.19531,20.66406 3.89921,-1.42959 9.09703,-6.62812 15.5957,-15.5957 15.20691,-20.92436 23.78673,-45.03156 25.73633,-72.32422 2.33953,-31.84143 -5.20073,-60.303463 -22.61719,-85.386716 -14.81698,-21.314282 -34.832,-37.886081 -60.04687,-49.712891 z m 27.29492,56.925781 h 1.5586 c 15.46685,17.805182 23.32989,36.519796 23.58984,56.144536 -2.4695,-0.26003 -6.69309,-0.19473 -12.67188,0.19531 -6.23873,0.38988 -10.39698,0.51864 -12.47656,0.38867 -1.29973,-19.10484 -1.29973,-38.013556 0,-56.728516 z"
       transform="matrix(0.26458334,0,0,0.26458334,8.0307756,126.44244)"
       id="path820"
       inkscape:connector-curvature="0"
       sodipodi:nodetypes="ccccccccccccccccccccccc" />
    


    <g
       aria-label="a"
       transform="scale(1.000033,0.999967)"
       style="font-style:normal;font-variant:normal;font-weight:normal;font-stretch:normal;font-size:6.6024394px;line-height:1.25;font-family:sans-serif;font-variant-ligatures:normal;font-variant-position:normal;font-variant-caps:normal;font-variant-numeric:normal;font-variant-alternates:normal;font-feature-settings:normal;text-indent:0;text-align:center;text-decoration:none;text-decoration-line:none;text-decoration-style:solid;text-decoration-color:#000000;letter-spacing:0px;word-spacing:0px;text-transform:none;writing-mode:lr-tb;direction:ltr;text-orientation:mixed;dominant-baseline:auto;baseline-shift:baseline;text-anchor:middle;white-space:normal;shape-padding:0;opacity:1;vector-effect:none;fill:#f9f2fb;fill-opacity:1;stroke:#000000;stroke-width:0;stroke-linecap:butt;stroke-linejoin:miter;stroke-miterlimit:4;stroke-dasharray:none;stroke-dashoffset:0;stroke-opacity:1"
       id="text824" />
    <path
       style="fill:#f9f2fb;fill-opacity:1;fill-rule:evenodd;stroke-width:0.26458332"
       d="M 47.756072,122.88946 A 43.278276,43.278276 0 0 0 4.4777988,166.16773 43.278276,43.278276 0 0 0 47.756072,209.446 43.278276,43.278276 0 0 0 91.034346,166.16773 43.278276,43.278276 0 0 0 47.756072,122.88946 Z m 0,2.70488 A 40.573382,40.573382 0 0 1 88.329453,166.16773 40.573382,40.573382 0 0 1 47.756072,206.74111 40.573382,40.573382 0 0 1 7.1826909,166.16773 40.573382,40.573382 0 0 1 47.756072,125.59434 Z"
       id="path12"
       inkscape:connector-curvature="0" />
  </g>
</svg>
